<?xml version="1.0" standalone="no"?>
<!DOCTYPE svg PUBLIC "-//W3C//DTD SVG 20010904//EN"
 "http://www.w3.org/TR/2001/REC-SVG-20010904/DTD/svg10.dtd">
<svg version="1.0" xmlns="http://www.w3.org/2000/svg"
 width="700.000000pt" height="700.000000pt" viewBox="0 0 700.000000 700.000000"
 preserveAspectRatio="xMidYMid meet">
<metadata>
Created by potrace 1.11, written by Peter Selinger 2001-2013
</metadata>
<g transform="translate(0.000000,700.000000) scale(0.100000,-0.100000)"
fill="#000000" stroke="none">
<path d="M3417 6714 c-1 -1 -54 -4 -117 -8 -136 -8 -203 -13 -250 -21 -19 -4
-51 -8 -70 -11 -19 -2 -46 -6 -60 -9 -14 -3 -36 -8 -50 -10 -14 -3 -38 -8 -55
-11 -16 -4 -40 -8 -51 -9 -12 -2 -30 -7 -40 -13 -11 -5 -27 -8 -36 -7 -10 2
-18 -1 -18 -6 0 -6 -4 -7 -10 -4 -5 3 -22 -1 -37 -8 -15 -8 -36 -13 -45 -12
-10 2 -18 -1 -18 -6 0 -6 -5 -7 -10 -4 -6 4 -17 1 -25 -5 -8 -7 -15 -10 -15
-6 0 4 -14 -1 -30 -9 -17 -9 -35 -13 -40 -10 -6 3 -10 3 -10 -2 0 -4 -29 -17
-65 -28 -36 -10 -65 -23 -65 -28 0 -4 -4 -6 -9 -2 -5 3 -12 1 -15 -4 -3 -5
-18 -12 -33 -16 -38 -9 -157 -66 -161 -76 -2 -5 -7 -7 -12 -4 -4 3 -36 -11
-69 -29 -34 -19 -61 -32 -61 -28 0 4 -5 0 -10 -8 -5 -8 -13 -16 -17 -16 -26
-5 -53 -18 -53 -26 0 -5 -5 -6 -10 -3 -5 3 -10 1 -10 -5 0 -6 -13 -16 -30 -21
-16 -6 -30 -15 -30 -20 0 -5 -7 -9 -15 -9 -8 0 -15 -4 -15 -10 0 -5 -6 -10
-13 -10 -7 0 -22 -8 -33 -18 -10 -9 -31 -23 -46 -29 -16 -7 -28 -17 -28 -23 0
-5 -6 -10 -13 -10 -7 0 -25 -11 -40 -25 -15 -14 -27 -24 -27 -21 0 2 -10 -4
-22 -14 -13 -11 -43 -36 -68 -56 -108 -87 -163 -136 -283 -256 -70 -71 -125
-128 -122 -128 2 0 -9 -15 -26 -32 -16 -18 -36 -40 -43 -48 -8 -8 -52 -67
-100 -130 -47 -63 -90 -119 -94 -125 -4 -5 -11 -17 -15 -25 -4 -8 -34 -58 -66
-110 -33 -52 -76 -129 -97 -170 -21 -41 -43 -78 -49 -82 -5 -4 -7 -8 -3 -8 3
0 -8 -30 -26 -67 -18 -38 -48 -106 -66 -153 -17 -47 -36 -94 -40 -105 -30 -70
-108 -351 -125 -445 -22 -125 -46 -287 -52 -355 -10 -99 -10 -497 -1 -585 4
-36 10 -90 13 -120 3 -30 8 -66 12 -80 3 -14 7 -38 9 -55 24 -161 113 -490
169 -620 7 -16 18 -46 26 -65 26 -71 141 -305 196 -399 96 -164 203 -316 340
-481 33 -39 293 -301 364 -366 14 -13 31 -24 37 -24 7 0 12 -4 12 -8 0 -5 35
-34 78 -66 42 -31 84 -63 93 -69 40 -31 79 -57 84 -57 3 0 15 -8 26 -18 10
-11 32 -25 47 -33 15 -7 46 -26 69 -41 23 -15 45 -28 48 -28 4 0 20 -9 36 -21
16 -11 29 -17 29 -13 0 4 8 0 18 -9 9 -8 24 -17 32 -19 8 -2 17 -5 20 -8 11
-11 239 -116 273 -125 4 -2 10 -4 15 -5 4 -1 10 -2 15 -1 4 0 7 -4 7 -10 0 -5
4 -8 9 -4 5 3 12 1 16 -5 3 -5 12 -10 20 -10 8 0 26 -5 42 -12 29 -12 43 -16
68 -21 8 -2 18 -6 21 -10 4 -4 16 -7 26 -7 10 0 18 -4 18 -9 0 -6 8 -8 18 -7
9 2 28 -1 42 -7 14 -5 32 -11 40 -12 28 -6 55 -13 98 -28 29 -10 42 -11 42 -3
0 6 4 5 9 -3 5 -8 22 -15 38 -16 61 -4 64 -5 57 -17 -5 -10 -4 -10 6 -1 8 7
22 8 42 2 17 -4 35 -6 39 -3 5 3 9 0 9 -7 0 -9 3 -9 14 0 9 8 15 8 18 2 1 -6
24 -11 51 -12 26 -1 47 -7 47 -13 0 -6 4 -5 9 3 6 9 10 10 16 2 5 -9 10 -9 20
-1 8 7 16 7 19 1 6 -10 9 -10 198 -14 71 -1 128 -6 128 -10 0 -5 5 -5 11 -2
18 12 109 13 102 2 -4 -6 -1 -7 8 -2 7 5 29 10 49 11 19 1 53 3 75 5 22 1 48
6 57 11 10 5 19 4 23 -2 5 -8 12 -7 23 2 13 11 14 11 7 -1 -6 -11 -5 -12 6 -5
16 10 29 12 85 17 22 2 45 6 50 10 6 3 22 4 37 3 15 -2 27 0 27 5 0 4 9 6 20
4 11 -2 22 1 26 6 3 6 12 5 22 -3 9 -7 13 -8 9 -2 -4 7 18 16 64 24 38 7 73
18 76 23 3 5 9 3 14 -4 6 -10 9 -11 9 -1 0 6 11 12 25 12 14 0 25 4 25 9 0 4
10 7 23 7 12 -1 31 5 41 13 11 9 16 11 13 4 -4 -6 10 -3 30 7 24 11 40 14 44
8 4 -5 9 -2 13 7 3 9 10 13 16 10 5 -3 10 0 10 7 0 9 3 9 10 -2 7 -11 10 -11
10 -2 0 7 5 10 10 7 6 -3 10 -2 10 4 0 6 7 8 15 5 8 -4 15 -2 15 2 0 5 19 15
42 22 23 7 60 22 83 32 117 53 154 68 159 62 3 -3 6 2 6 11 0 10 5 14 15 11 8
-4 15 -2 15 3 0 6 18 16 40 23 23 8 44 19 48 26 4 7 16 14 27 16 11 1 22 5 25
9 16 17 78 48 85 41 5 -4 5 -1 1 6 -4 6 -2 12 4 12 11 0 121 70 131 84 4 5 12
5 18 2 6 -4 10 -4 9 1 -2 4 2 10 7 12 11 5 19 11 59 47 15 14 34 23 42 20 8
-3 11 0 7 10 -3 7 0 14 6 14 7 0 21 9 33 20 12 10 25 17 30 14 4 -3 8 1 8 9 0
7 11 20 25 27 13 7 22 17 20 21 -3 4 4 11 16 14 12 4 39 26 60 49 21 22 39 37
39 33 0 -4 14 8 31 28 17 19 35 32 40 29 5 -3 8 -1 7 4 -2 5 23 36 54 68 122
124 149 154 143 154 -4 0 13 19 37 42 24 23 36 38 28 33 -8 -5 -1 7 15 27 17
19 33 33 38 31 4 -3 6 0 5 5 -2 5 22 45 53 88 102 145 182 277 265 442 46 89
81 162 78 162 -3 0 1 10 8 22 7 13 13 25 13 28 1 3 6 16 12 30 41 100 123 356
138 429 2 9 11 48 20 86 9 39 18 86 21 105 3 19 9 58 14 85 26 145 35 272 35
510 0 242 -14 406 -50 585 -2 14 -10 50 -16 80 -29 146 -112 425 -150 504 -11
22 -19 43 -19 48 0 35 -168 363 -256 501 -24 37 -44 72 -44 76 0 5 -3 11 -8
13 -4 2 -30 35 -57 73 -45 64 -149 195 -200 253 -81 93 -327 328 -400 384 -48
37 -55 42 -80 66 -14 13 -25 19 -25 15 0 -4 -4 -3 -8 2 -4 6 -23 22 -42 35
-19 13 -37 27 -40 30 -3 3 -17 11 -32 19 -15 8 -25 19 -21 24 3 6 1 7 -5 3 -6
-3 -18 1 -26 10 -9 8 -16 12 -16 7 0 -4 -4 -3 -8 2 -4 6 -16 15 -27 22 -92 55
-131 77 -137 75 -5 -1 -8 2 -8 8 0 5 -4 10 -9 10 -5 0 -37 16 -70 35 -34 19
-64 35 -66 35 -7 1 -94 39 -135 58 -19 9 -37 17 -40 17 -3 0 -15 6 -26 13 -12
6 -24 8 -28 5 -3 -3 -6 0 -6 7 0 7 -3 11 -6 7 -3 -3 -31 5 -62 17 -79 32 -154
56 -174 56 -10 0 -18 4 -18 8 0 4 -11 9 -26 10 -14 1 -34 6 -44 12 -10 5 -29
10 -43 10 -13 0 -27 3 -31 7 -4 4 -17 8 -30 9 -13 0 -32 4 -42 9 -10 4 -30 9
-44 11 -14 1 -32 4 -40 7 -8 2 -37 7 -65 11 -27 4 -61 10 -75 12 -55 10 -97
16 -145 19 -27 2 -50 4 -50 5 0 4 -353 18 -358 14z"/>
</g>
</svg>
